<svg width="64" height="64" viewBox="0 0 64 64" fill="none" xmlns="http://www.w3.org/2000/svg">
<rect width="64" height="64" rx="8" fill="#EF6F6C"/>
<path d="M9.11745 60V60.5H9.61745H20.4704C27.1856 60.5 31.8994 55.5735 31.8994 49.2492V18.7117V18.2117H31.3994H21.2949H20.7949V18.7117V49.2492C20.7949 49.4437 20.7507 49.6292 20.693 49.7493C20.6846 49.7666 20.6767 49.7812 20.6694 49.7933H20.5962V18.0158H31.3994H31.8994V17.5158V7.80917V7.30917H31.3994H20.5962V4V3.5H20.0962H9.61745H9.11745V4V60Z" fill="#EBFFF5" stroke="#435049"/>
<path d="M32.1006 60V60.5H32.6006H43.4536C50.1688 60.5 54.8825 55.5735 54.8825 49.2492V18.7117V18.2117H54.3825H44.2781H43.7781V18.7117V49.2492C43.7781 49.4437 43.7339 49.6292 43.6761 49.7493C43.6678 49.7666 43.6598 49.7812 43.6526 49.7933H43.5793V18.0158H54.3825H54.8825V17.5158V7.80917V7.30917H54.3825H43.5793V4V3.5H43.0793H32.6006H32.1006V4V60Z" fill="#EBFFF5" stroke="#435049"/>
</svg>
