<svg xmlns="http://www.w3.org/2000/svg" id="Layer_2" data-name="Layer 2" viewBox="0 0 95.3 57.16"><defs><style>.cls-1{fill-rule:evenodd;stroke-width:0}</style></defs><g id="OBJECTS"><path d="M1.23 40.52c.05.09.15.25.06.13-.08-.11-.09.2-.14.09-.04-.1-.42-.08-.26-.06.04 0-.07.05-.07.1 0 .21.13.4.21.53l1.55 2.07q1.035 1.035 2.16 1.95c.75.62 1.53 1.2 2.33 1.75 2.57 1.75 5.34 3.28 8.22 4.56 2.87 1.27 5.85 2.3 8.81 3.17 13.54 3.88 27.82 2.92 39-2.81 7.17-3.68 13.19-9.25 16.71-16.85a34.7 34.7 0 0 0 2.98-10.74c.17-1.53.21-3.11.19-4.74 0-.1-.07-.18-.17-.19-.1 0-.19.07-.19.17-.24 1.59-.58 3.09-.93 4.57-.88 3.69-2.11 7.02-3.69 10.04-3.65 7-9.16 12.28-15.95 15.68-10.72 5.37-24.34 6.18-37.23 2.39-2.87-.82-5.74-1.82-8.54-2.99-2.79-1.16-5.51-2.48-8.03-4.06-.77-.48-1.52-.99-2.25-1.54Q4.905 42.915 3.9 42l-1.89-1.51c-.24-.13-.52-.61-.68-.5-.3.2-.35-.24-.23.25-.08.04-.1.14-.06.21s.12.09.18.07Z" class="cls-1"/><path d="M61.76 15.79c.47-.32.95-.64 1.44-.94 2.42-1.53 4.99-2.89 7.3-4.56 1.92-1.39 3.81-2.82 5.57-4.39a35 35 0 0 0 3.36-3.41l.17-.2.11.12c.65.74 1.5 2.01 2.39 3.41 1.79 2.83 3.69 6.17 4.23 6.96 1.05 1.53 2.17 3.01 3.34 4.45.89 1.1 1.82 2.17 2.76 3.23l-.2-.02c-1.87-.28-4.34-.93-4.82-1.02-.77-.12-2.85-.33-4.21-.24-.5.03-.75.27-1.03.22a.17.17 0 0 0-.22.02.16.16 0 0 0 .03.22c.14.33.36.65.92.95 1.19.63 3.36.52 4.1.73.63.14 4.59 1.24 6.41 1.26 1.08 0 1.67-.51 1.82-.94.12-.34.13-.9-.46-1.55q-1.83-2.01-3.54-4.11A68 68 0 0 1 88 11.66c-.7-1.02-3.63-6.28-5.7-9.21-.99-1.4-1.95-2.27-2.41-2.38-.41-.1-.81-.01-1.17.22-.34.22-.66.65-.86.88-.98 1.15-2.05 2.21-3.17 3.22-1.71 1.53-3.54 2.92-5.4 4.27-2.27 1.65-4.8 2.99-7.18 4.5-1.07.67-2.11 1.38-3.09 2.16-.14.11-.48.4-.62.65-.14.26-.18.52-.14.76.05.31.3.81 1.03.99.8.2 2.95.14 3.22.15 2.57.14 5.13.43 7.7.48.78.01 1.56.04 2.33-.07.36-.05.66-.17 1.01-.26.25.02.47-.18.49-.43a.466.466 0 0 0-.43-.49c-.34-.13-.62-.29-.97-.38-.75-.21-1.52-.28-2.3-.37-2.56-.3-5.15-.35-7.73-.49l-.87-.03Z" class="cls-1"/><path d="M90.61 19.66c.18.36.76 1.05.98 1.26.23.21.61.18.37-.19 0-.03-.02-.06-.04-.09-.15-.23-.58-.89-.68-1.23l-.67-2.49c-.02-.07-.33-1.44-.52-1.94-.08-.21-.19-.33-.25-.36a.36.36 0 0 0-.44.02c-.11.08-.22.29-.19.58.04.35.25.94.26 1.02l.57 3.75v.8q-.12-.3-.21-.66c-.35-1.35-.38-3.14-.6-3.95l-.62-1.9-.21-.96a.39.39 0 0 0-.44-.33c-.21.03-.36.22-.33.43l.13 1.08.28 1.09.44 2.96c0 .09.01.41.01.76l-.19-.42c-.15-.42-.26-.84-.37-1.27-.03-.18-.05-.32-.06-.4l-.77-5.07-.56-2.45v.03s-.03.07-.08.18c-.24.24-.8-.54-.8-.54s-.04.06-.06.15c-.02.06-.05.29-.05.38v.02c-.15 1.26-.02 1.46.2 1.25l-.07-.39-.13-.86.05-.36c-.04.26 0 .61.08.98q.06.27.15.54c-.03.04-.06.07-.08.09l.3 1.82c.26 1.23.47 2.49.79 3.72.09.34.19.68.31 1.02.07.38.17.93.21 1.44v.05l-.64-2.31-1.31-5.98-.54-2.56-.02-.11v-.07l-.2-.99a.407.407 0 0 0-.47-.29c-.21.04-.35.23-.33.44l.05.62-.45-1.95-.27-1.24a.277.277 0 0 0-.31-.21c-.15.02-.25.15-.23.3l.13 1.78.32 2.5-.15-.58-.44-1.67c-.38-1.63-.82-3.24-1.27-4.84l-.03-.11-.03-.13c-.18-.66-.32-.9-.4-.86-.09-.03-.12.18-.04.7.02.12.04.25.07.39l.02.11 1.69 10.58-1.53-8c-.07-.28-.06-.26-.13-.53l-.16-.56-.15-1.07-.08-.94c0-.06-.03-.21-.04-.24-.13-.41-.34-.64-.43.03-.06.42-.02.89.07 1.37l.25 3.08.02.17-.05-.26-.47-2.31-.17-1.32s0-.04-.01-.06l-.1-.28a.27.27 0 0 0-.28-.19c-.13 0-.23.1-.25.23-.06.36-.05.76 0 1.18.06.5.17 1.02.27 1.52l.16 1.33c.11 1.35.24 2.7.43 4.04.24 1.67.55 3.34.82 5.01l-.04 1.6c-.11-.44-.23-.93-.33-1.36l-1.33-7.95-.16-1.24c-.03-.21-.08-.43-.12-.65l-.25-1.91-.05-1.12c0-.12-.06-.4-.1-.46-.17-.32-.4-.5-.48.09-.06.4-.06.84-.01 1.29.03.29.07.59.13.89l.17 2.21c.18 2.11.29 4.27.61 6.38.08.54.18 1.07.29 1.6l-.03 2.56c-.05-.54-.06-1.07-.09-1.33l-1.12-8.51-.28-2.9c-.02-.2.05-.52-.02-.68s-.18-.28-.38-.31c-.33-.04-.49.11-.53.4-.03.23.12.7.15.96l.15 1.2a.31.31 0 0 0-.32-.22c-.18.01-.3.16-.29.34.06 1.92-.07 3.78.02 5.67.06 1.27.23 2.53.51 3.82.03.15.28 1.68.56 2.56.13.41.3.71.43.81.06.05.37.08.6-.09.08.16.18.28.29.37.44.35.77.24 1-.23.11-.22.17-.66.2-1.03.1.35.2.63.3.8.28.47.64.51.92.34.08-.05.18-.17.26-.35.04.23.09.47.17.6.19.29.45.42.81.3.23-.08.39-.22.49-.43.04-.09.06-.19.08-.3.25.48.61.67.85.65.28.55.71.86 1.22.8.21-.02.47-.17.6-.51.04-.1.07-.22.09-.35.2.11.46.11.62-.19l.37.91c.04.07.3.61.55.75.21.11.42.15.61-.02.18-.13.3-.42.35-.81l.46.78s.43 0 .45-.38v-.27l.12.39c.24.72.55 1.32.99 1.61.11.08.5.08.56-.37.06-.43.03-1.6.02-1.63l-.04-.29Zm-7.99-5.77v.27l.09.3zm1.89 4.7c.05-.13.11-.23.11-.25l-.04-1.35c-.09-.4-.17-.79-.25-1.09.01.35.02.83.02 1.31.02.26.05.55.1.83.03.19.04.39.06.55" class="cls-1"/><path d="M76.04 16.47c.01.08.03.16.04.22.07.26.22.37.29.38.01 0 .28-.04.29-.29v-.24c.12-.13.07-.49-.01-.87l-.08-1.78c-.02-.08-.1-.14-.18-.13h-.02l-.45-4.82-.4-3.11c0-.06-.12-.81-.19-1.1a.8.8 0 0 0-.09-.24c-.25-.37-.5-.27-.68 0-.13.18-.19.54-.18.96.03.63.19 1.43.2 1.7l.06.71-.11-.66a4 4 0 0 0-.09-.56.56.56 0 0 0-.55-.4c-.12 0-.24.03-.35.13-.04.04-.17.13-.2.37-.12.9-.15 1.82-.12 2.76.01.43.03.85.06 1.28l-.1-.63-.23-1.23c0-.16-.03-.31-.08-.41-.05-.25-.13-.67-.23-.73-.13-.08-.3-.15-.51.02-.11.09-.24.36-.21.75.04.39.16.95.25 1.32l.04.43.22 2.1v.38c.03.8 0 1.6-.1 2.39l-.61-4.64-.07-1.02c-.02-.14-.03-.48-.05-.57a.46.46 0 0 0-.11-.22c-.16-.15-.32-.16-.47-.04-.03.02-.13.08-.15.28l.08 3.83-.04-.25-.06-.38v-.94l-.03-1c-.01-.18 0-.61 0-.73 0-.1-.02-.16-.03-.19-.16-.47-.52-.44-.73-.38-.25-.29-1.08.79-1.18 1.7-.02.17-.03.48-.04.97v.03l-.07.14-.15.27-.12.2.07-.6a.59.59 0 0 0-.3-.56c-.05-.41-.08-.75-.08-.75s-.07.39-.08.52v.1l-.02.07-.06.59c.01-.17.03-.37.06-.59h-.03a.57.57 0 0 0-.63.43c-.02-.04-.04-.07-.06-.1-.32-.44-.64-.3-.86-.12-.08.07-.22.54-.28.75l-.21.91-.02.08a.63.63 0 0 0-.35-.17c-.04 0-.48-.02-.62.43a.7.7 0 0 0-.19-.11c-.2-.07-.47-.1-.69.22l-.35.75h-.08c-.08-.01-.22.02-.37.06l-.15-.11c-.28-.2-.53-.17-.78 0-.1.07-.51.51-.64.66-.18.08-.28.17-.3.2-.09.12-.13.23-.15.33-.13.17-.2.35-.22.48-.17.77.33.98.74 1.07.12.03.56-.38.86-.45q.06.015.12 0h.04s.04.03.05.04l.03.04-.12.03s.16.04.14-.01l-.02-.02c.38-.1.91-.35 1.31-.7.17-.15.28-.53.38-.41.04.05-.01-.12-.04-.12h.09c-.05.4-.08.79-.07 1.02.05.62.5.75.76.71.22-.04.45-.18.66-.43.14.43.44.61.94.45.12-.04.23-.1.34-.17q.105.255.27.42c.25.25.49.25.69.18.15-.05.35-.42.48-.79.18.49.63.41.72.38.13-.04.3-.12.39-.34.23.04.45-.03.63-.25.02-.02.04-.05.05-.09.07.32.13.63.18.83.04.14.07.25.09.29.1.21.27.24.34.25.15.02.3 0 .41-.18.11-.16.18-.38.22-.65l.06.12c.17.3.42.4.68.31.11-.04.27-.18.36-.43l.22 1.87c.05.2.11.29.18.34s.17.11.37.07c.26-.04.49-.31.6-.76.15-.63.11-1.69.1-2.24.08.56.25 1.87.4 2.44.05.19.1.33.13.38.15.22.33.23.45.18.23-.08.45-.39.55-.88.09-.47.12-1.12.12-1.7Zm-7.91-5.48c.01-.22.04-.45.07-.67-.03.22-.06.41-.08.59v.07h.01Zm-.48 5.41c.07.03.1-.05.1-.15s-.11.15-.11.15Z" class="cls-1"/><path d="m73.23 41.51.03.04c.21.3.48.44.86.31.09-.03.4-.23.45-.71.03-.3.04-.8.03-1.27.18 0 .37-.08.49-.37.16-.39.27-1.57.27-1.69.01-.27.02-.55.02-.82.26.34.54.3.76.19.18-.09.47-.91.53-1.28v-.47q.105.225.21.42c.28.51.62.38.86.18.1-.09.27-.66.29-.91l.04-1.41c.1.1.21.15.3.17.43.07.65-.13.73-.5.06-.28-.09-.88-.09-1.2l-.02-.34c.24.09.44.02.6-.08.17-.11.29-.68.35-1.21.24.06.67.08.75-.36.08-.47.24-1.68.24-1.68l-.03-.43c.18.05.34.02.43-.03.19-.11.35-.33.42-.64.13-.53.03-1.43.02-1.66-.03-.52-.08-1.04-.14-1.55.23.01.42-.14.56-.3.12-.14.21-.95.18-1.29l-.17-1.27c.27-.04.66-.29.58-.9-.04-.27-.33-.85-.51-1.34.18.32.38.64.61.63.39.05.45-.2.3-.53a.77.77 0 0 0-.35-.36q-.045-.045-.09-.03h-.08c-.05-.3-.06-.65-.15-.85-.24-.5-.61-.58-1.02-.27l-.12-.39a.8.8 0 0 0-.08-.18l-.03-.13-.02.03c-.28-.45-.77-.51-.78-.51 0 0-.15.09-.26.25l-.13-.43a.75.75 0 0 0-1.46.11.56.56 0 0 0-.44-.04.57.57 0 0 0-.39.58c-.13-.45-.27-.9-.4-1.35-.14-.45-.47-.49-.51-.49-.05 0-.28 0-.47.14-.07-.15-.15-.28-.24-.38-.49-.54-.76-.18-.88.18-.04.12.05.7.08.94l.17 1.47.45 2.53-.09-.29c-.23-.78-.38-1.81-.67-2.7-.15-.44-.33-.85-.57-1.19-.41-.59-.74-.3-.93.04-.07.12-.07.72-.05.97l.04.49c-.11-.39-.23-.78-.35-1.16-.08-.29-.29-.33-.31-.33-.06-.01-.51.03-.48.47.01.17.11.8.15 1.05l.22 1.39.81 4.36 1.05 4.29c.17 1.17.33 2.34.49 3.49l.05.53-.51-1.85c-.12-.81-.27-1.62-.44-2.42-.41-1.96-.93-3.89-1.43-5.83-.2-.79-.35-2.08-.66-3.14-.15-.53-.35-1.01-.59-1.35-.2-.29-.44-.14-.51-.08-.05.04-.11.11-.12.25 0 .09.1.48.13.63l.21 1.53.22 1.13c-.09.07-.17.17-.22.28-.14.27-.2.67-.19 1.12.02.48.11 1.03.18 1.47-.06-.15-.13-.29-.21-.43-.25-.42-.59-.34-.73-.31a.61.61 0 0 0-.45.43c-.03.1-.01.54 0 .72l.21 1.55.12.64h-.02c-.12.04-.26.13-.32.35-.04.14.06.78.08 1.04l.03 2.49c.08 1.13.18 2.26.35 3.38.2 1.33.49 2.64.74 3.95l.03.94c.01.44-.34 2.73-.31 3.57 0 .15.03.27.06.37-.03.18.05.29.16.31.18.18.4.05.4-.3.04-.08.08-.19.11-.31.06-.23.11-.58.16-.97l.04.23c.05.3.1.94.21 1.21.23.53.56.66.98.23.07-.06.16-.33.22-.73Zm8.92-23.01c.07-.06.27-.22.14-.2-.1.02-.14.09-.14.2m-.35.13c.06 0 .12 0 .18-.03-.08-.1-.16-.16-.23-.15l.04.11.02.06Zm.96.54c.04.1.11.17.2.2.17.03 0-.1-.13-.22h-.01zm-2.77 9.23-.15-2.1c-.07-.49-.14-.99-.22-1.49l-.36-1.48c.15.86.28 1.72.4 2.58l.16 1.89.06.23zm-2.98 3.98-.09-2.28-1.58-5.46 1.26 5.29c.13.61.25 1.52.41 2.45m-2.41 4.41c.03-.77.02-1.54-.02-2.31v-.12c-.11-.8-.17-1.59-.29-2.12l-.15-.66.09.97c.1 1.09.17 2.19.23 3.29l.07.46.07.5Z" class="cls-1"/><path d="M74.96 40.04c.14.03.25-.42.42-.87.15.09.33.11.51.06.34-.1.53-.46.42-.8 0-.05.14.12.18.04.05-.09.07-.22.12-.35.24-.65.63-1.47.68-1.91.08-.6-.18-.96-.48-1.09-.17-.08-.83-.19-1.22.5-.29.51-.76 1.68-1 2.32-.27-.62-1.82.52-.55 1.57l-.06.19c-.03.11-.05.19-.05.21 0 .18.63 1 1 .21zm.82-3.79c.06-.16.05-.26-.07-.29-.19-.04-.08.13.07.29M55.66 52.25c.07.2.23.34.5.41.34.09.83-.04 1.31-.48.09-.08.18-.18.28-.28v.04c.03.54.35.66.64.66.31 0 1.24-.99 1.6-1.44.42-.54.79-1.12 1.13-1.73.03.05.05.08.08.11.18.16.61.35 1.1-.27.1-.12.21-.3.35-.54-.08.15-.14.29-.15.4-.05.37.08.63.48.74.02 0 .51-.11.8-.69.3-.6.82-1.7 1.24-2.65-.08.5-.2 1.41-.24 1.84-.01.17-.01.29 0 .33.12.59.47.52.74.27.36-.32.66-.85.9-1.47.45-1.17.7-2.68.92-3.47l.48-1.75-.04.35c-.08.94-.13 2.31-.1 2.92.03.58.4.83.47.85.21.05.61.01.81-.47s.4-1.84.43-2.01l1.03-5.71-.02.57c-.1.66-.19 1.33-.22 1.97-.03.54-.01 1.06.05 1.54l-.29 2.12c-.04.23-.09.82-.08.97.01.17.1.26.14.29.13.11.26.13.41.04.03-.02.15-.08.2-.28.17-.52.32-1.05.44-1.6.26.23.49.15.67.03.1-.07.2-.31.26-.48.15-.08.26-.22.3-.39l.56-2.54a.56.56 0 0 0-.4-.67l-.1-.02c-.04-.91-.16-3.3-.36-5.12-.03-.32-.07-.62-.12-.89l.03-1.04.1-.96c.02-.17-.01-.29-.07-.36l.02-.6c0-.26-.19-.47-.45-.48a.47.47 0 0 0-.49.44l-.08 1.42c-.14.08-.26.21-.31.44-.15.76-.54 2.66-.55 2.72l-.52 2.49.54-4.94.32-2.47c.04-.37.26-1.26.23-1.46-.04-.23-.16-.35-.28-.41.19-.99.08-1.33-.16-1.17-.18-.36-.63.25-1.19 2.44s-.5 1.71-.5 1.71l-.02.06c-.1-.13-.48-.47-.9.01-.1.12-.2.26-.29.41-.09-1.16-.68-.78-1.58 2.58l-.08.29-.36.77s-.08-.04-.11-.05a.56.56 0 0 0-.56.1c-.12.09-.46.65-.59.88l-.15.3a.633.633 0 0 0-.83.26l-1.76 3.22a.56.56 0 0 0-.14-.27c-.1-.11-.42-.38-.86-.02-.76.63-1.42 1.49-1.99 2.48-1.18 2.04-1.99 4.6-2.95 6.33l-.68 1.2c-.29.38-.6.76-.92 1.13-.06.06-.06.16 0 .22.04.04.09.05.14.04l-.52.95c-.13.26-.05.94.09 1.05.16.13.37.22.67.06.51-.29 1.02-.71 1.53-1.23Zm.42-2.25c.23-.31.45-.63.67-.97.47-.72.93-1.48 1.36-2.23l1.16-2.37-.54.84c-.25.38-.5.76-.75 1.15l-.36.54c-.4.91-.78 1.77-1.19 2.49l-.34.56Zm2.92.6c.05-.04.09-.09.12-.12.44-.58.83-1.23 1.18-1.89.29-.55.56-1.13.82-1.69-.57.93-1.13 1.79-1.62 2.57-.05.07-.15.24-.29.46-.08.23-.15.46-.2.68Z" class="cls-1"/><path d="M47.92 53.87c-.17.29-.3.56-.3.68.02.48.23 1.03 1.11.75.46-.14 1.01-.52 1.55-1.03.12-.12.25-.24.37-.36.08.21.31.51.73.27.12-.07.51-.38.66-.52l1.3-1.16 2.52-2.47c.66-.73 1.28-1.53 1.89-2.36l-1.65 2.29a240 240 0 0 0-2.6 3.33s.24.76.23.76c.26.06.73-.07 1.24-.35.66-.37 1.45-.96 1.8-1.19h.21l1.11-.37c-.03.19-.05.37-.06.36.28.23.87.29 1.57.13 1.01-.23 2.29-.81 2.62-.95 1.51-.64 2.94-1.47 4.24-2.48 1.28-1 2.43-2.17 3.48-3.4.28-.34 2.55-3.34 2.37-3.53-.03-.04-.18-.07-.4.04a.44.44 0 0 0-.12-.15.586.586 0 0 0-.83.04l-1.01 1.08-1.72 1.67c-.55.52-1.14 1.03-1.74 1.5-.29.2-.58.38-.88.57-.27.17-.55.33-.83.48l2.03-1.89c.64-.66.94-1.04 1.07-1.22.26-.39.16-.66.13-.74-.11-.27-.32-.45-.67-.41-.43.04-.98.33-1.53.78-.88.72-1.83 1.83-2.3 2.25a47 47 0 0 1-3.14 2.59c-.81.42-1.81.85-2.64 1.34-.17.1-.34.21-.5.32.98-1.04 1.87-2.08 2.67-3.19.86-1.19 1.61-2.46 2.39-3.78l1.35-2.24c.2-.34.66-1.17.71-1.4.05-.24-.03-.4-.1-.48-.1-.12-.42-.44-.87-.06q-.885.75-1.68 1.65c.44-.61.87-1.21 1.27-1.81.03-.05.05-.08.06-.1.11-.21.06-.36.05-.42-.07-.32-.28-.47-.6-.48-.03 0-.27-.01-.48.23-.07.08-.31.37-.41.48l-.81.94-.14.22c.03-.07.06-.14.09-.2.06-.14-.33-.97-.87-.66.36-.64.41-.97.24-1.05-.14-.21-.67.06-1.65 1.02-.4.38-.85.85-1.31 1.41l-.06.06-4.83 5.21c-.67.63-1.34 1.26-2.03 1.87-.46.41-.93.81-1.4 1.2l2.74-2.68 1.73-1.92.5-.46 1.41-1.5a.77.77 0 0 0-.04-1.04.77.77 0 0 0-1.04-.03l-1.14 1.05-.59.62c.01-.28-.15-.51-.18-.52-.13-.11-.54-.24-1.04.07-.74.46-2.41 2-2.53 2.11l-4.17 3.84a87 87 0 0 1-4.75 3.28l-.45.27c.82-.63 1.63-1.27 2.42-1.94 1.14-.95 2.24-1.95 3.34-2.95l1.14-1.12c.73-.63 1.6-1.38 2.07-1.8.18-.16.31-.28.37-.35.28-.33.03-.62-.04-.69-.08-.07-.33-.18-.65-.02-.31.16-1.01.71-1.08.77l-2.62 2.3-2.6 2.18c-1.32 1.02-2.73 2.07-4.19 2.97-.23.14-.46.28-.7.42.43-.31.86-.63 1.28-.95 1.06-.81 2.09-1.68 3.1-2.55.23-.2.64-.58 1.15-1.05l2.3-1.69 1.67-1.26c.19-.17.61-.63.63-.77.06-.35 0-.76-.68-.71-.37.03-1.13.46-1.99 1.1.22-.19.45-.43.45-.57 0-.15-.05-.32-.23-.47-.08-.07-.47-.21-1.01.13-.51.32-1.54 1.08-3.08 2.29l-3.36 2.48c-1.32.9-2.69 1.79-4.09 2.6-1.2.69-2.42 1.33-3.66 1.86l-.58.22.48-.31 1.57-1.07c.51-.27 1.01-.55 1.5-.85 1.47-.89 2.88-1.89 4.3-2.85l3.46-2.18c.61-.39 1.16-.8 1.36-1 .19-.19.22-.37.22-.45 0-.23-.09-.55-.57-.5-.36.03-.79.18-1.24.41-.28.14-.57.32-.84.5-.04-.24-.21-.58-.54-.69.03-.14 0-.3-.07-.43a.62.62 0 0 0-.82-.24l-1.79.87-1.63.83c0-.06-.03-.12-.06-.18a.615.615 0 0 0-.83-.26l-9.07 4.73-3.24 1.82c-.27.19-.73.45-.88.72a.89.89 0 0 0-.05.84c.09.19.57.6 1.39.39.31-.08.71-.21 1.16-.37.13.17.37.29.76.31.39.01 1.42-.17 1.68-.23.04.14.13.28.3.42.18.15.56.26 1.05.19-.11.29-.11.59.03.92.15.33.56.59 1.19.48.36-.06.83-.24 1.24-.42l-.07.08c-.34.42-.19.75-.11.89.1.17.28.36.63.37.22 0 1.1-.37 1.47-.52l1.17-.56c-.05.27.04.47.17.61.1.11.32.3.72.2.62-.15 1.25-.37 1.87-.63-.08.1-.14.2-.2.31-.3.55.02.78.33.88.15.04.81-.17 1.08-.28l1.29-.57 1.62-1c-.2.28-.36.57-.48.88-.15.37.03.58.21.7.13.09.77.01 1.01-.13l1.33-.77.68-.42c-.05.08-.08.17-.12.26-.32.83.17 1.08.63 1.12.25.02 1.24-.53 1.65-.77l.97-.67c-.13.18-.25.37-.36.56-.27.47-.09.78.14.98.14.12.92.19 1.21.04l1.41-.85c.33-.22.64-.45.95-.68Zm9.35-9.22c.66-.78 1.3-1.57 1.93-2.37l.7-1.06c-.36.45-.78.9-1.17 1.32l-.49.7-.96 1.41Zm-18.91 4.03 1.87-1.44c.52-.42 1.97-1.72 3.29-2.78l-1.3.95-.27.2-.8.69c-.92.81-1.85 1.61-2.8 2.38Zm3.56 3.52.83-.54c1.14-.8 2.23-1.65 3.28-2.55 1.54-1.31 3.02-2.71 4.48-4.13l.25-.27-.95.79c-.58.49-1.18.97-1.77 1.44l-4.33 3.94c-.5.42-1.14.85-1.8 1.3Zm20.44-1.66c1.24-.56 2.41-1.28 3.52-2.09.26-.19.51-.38.76-.58l-.37.23c-.25.16-.51.31-.77.46-.68.47-1.37.92-2.06 1.36l-1.08.61Zm-32.99-.17.22-.1.51-.36-.35.18-.62.38.25-.11Z" class="cls-1"/><path d="M21.19 50.59c.44-.05.86-.12 1.26-.19 0 .08.03.17.14.26.05.04.32.08.68-.05.41-.15 1.06-.45 1.7-.75l2.03-.82c1.06-.49 2.09-1.03 3.12-1.59 1.53-.84 3.04-1.74 4.53-2.62l2.16-1.22c.22-.13.75-.46.83-.58.12-.18.09-.33.05-.44-.04-.09-.16-.29-.49-.26-.43.04-.91.21-1.39.45-.92.47-1.88 1.21-2.59 1.57l-3.62 1.68 1.89-1.27 1.21-.67 1.2-.96c.27-.25.31-.68.08-.97a.716.716 0 0 0-.96-.15l-1.5.97-2.08 1.34c-1.13.57-2.27 1.13-3.43 1.65l1.23-.71 3.26-2.1 1.38-.98c.08-.07.24-.28.27-.34.12-.28.05-.5-.03-.63-.09-.15-.34-.58-.92-.32l-2.41 1.3.54-.46.6-.46c.13-.09.47-.24.54-.3.18-.14.22-.31.24-.4.03-.19.04-.85-.74-.78-.28.02-.66.18-1.08.44-.44.28-.94.69-1.41 1.08l-1.15.69-1.19.67.82-.56.98-.64c.06-.04.21-.11.25-.14.2-.13.25-.29.27-.35.13-.37 0-.64-.32-.81-.04-.02-.22-.14-.53-.05-.42.12-.84.29-1.25.5l.02-.02c.2-.24.22-.44.22-.52.01-.37-.2-.92-.96-.7-.2.06-.78.4-1.22.64.28-.45-.1-.85-.19-.92a.69.69 0 0 0-.48-.16c.31-.3.37-.62.36-.78 0-.05-.38-.95-1.21-.49-.11.06-.29.16-.55.33.09-.17.1-.31.1-.4 0-.37-.17-.64-.56-.76-.08-.02-.31-.1-.68.06-.2.09-.65.33-1.49.81l-2.45 1.52 2.14-1.54.58-.45c.24-.18.3-.52.14-.77a.54.54 0 0 0-.44-.26c.29-.26.48-.54.54-.8.13-.59-.16-.83-.46-.94-.29-.1-1.48.49-1.98.77l-.85.48.33-.26c.08-.06.32-.14.38-.18.4-.25.37-.61.34-.73a.66.66 0 0 0-.28-.45c-.05-.04-.2-.17-.51-.13-.18.02-.38.07-.6.16.1-.25.18-.56.1-.77-.1-.24-.28-.53-.79-.58q-.165-.015-.39.03l.1-.15c.16-.29.12-.54.08-.65-.09-.27-.3-.56-.82-.44-.21.05-.43.12-.66.22a.64.64 0 0 0-.15-.31.65.65 0 0 0-.81-.12l-1.27.81-2.06 1.61-4.9 4.46s-1.09 1.04-1.52 1.42c-.38.33-.39.71-.39.73-.09.81.31 1.55.98 2.18.73.7 1.91 1.13 2.83 1.48-.24.22-.41.44-.42.56-.01.29.07.63.58.74.2.05.47.04.76-.01 0 .24.13.43.18.48.17.14.53.24 1 .15l.22-.05c-.31.4-.17.74-.03.93.05.07.13.17.28.24-.05.41.14.64.35.79.14.1.35.17.63.14.36-.04 1.08-.41 1.45-.53l.09-.03s-.01.09 0 .12c.02.2.38.78 1.2.62h.07c.25.17.51.34.77.51.05.11.33.48.82.51.38.22.76.43 1.16.61 1.07.5 2.45.82 3.87.87.04.14.18.24.31.31.12.06.73 0 .98-.08l1-.35Zm-2.99-1.86-.09.04h.04zm5.56.97 1.3-.61-1.32.52z" class="cls-1"/><path d="M13.31 29.42s-.05-.09-.08-.11a.175.175 0 0 0-.25-.02c-.06.04-.11.21.04.4.23.29.96.94 1.03 1.02l2.59 2.43c1.26.96 2.59 1.86 3.98 2.64s2.85 1.44 4.34 1.96c.06.02.13 0 .15-.07.03-.06 0-.13-.07-.15-1.43-.61-2.81-1.37-4.14-2.22-1.32-.85-2.58-1.78-3.76-2.79l-2.68-2.26c-.08-.06-.9-1.06-1.16-.82Z" class="cls-1"/><path d="M16.42 32.25s-.04-.08-.07-.12c-.08-.12-.25-.21-.41-.3l-1.1-.94-.42-.32-.16-.15-.28-.26-.16-.13-.07-.06c-.09-.08-.19-.14-.29-.19-.4-.23-.61-.15-.68.04-.06.08-.07.2 0 .35.08.23.32.54.63.84.43.4 1 .77 1.2.93l.13.1.14.11.4.33c.2.17.66.56.81.54h.05l1.28.93 3.05 1.94c.08.05.18.02.22-.05.05-.08.03-.18-.05-.22l-2.83-2.18-1.38-1.2Z" class="cls-1"/><path d="M29.68 38.97c-.04-.21-.77-.26-1.07-.39l-4.16-2.13c-1.29-.75-2.61-1.46-3.86-2.26-.81-.52-1.6-1.07-2.32-1.74l-2.19-1.69-1.99-1.7c-.1-.07-.42-.33-.67-.36-.16-.02-.31.04-.46.13-.23.15-.47.29-.67.48-.46.43-.78.97-1.11 1.6-.11.17-.06.4.11.52.17.11.4.06.52-.11l1.6-1.54c.07.03.15.05.17.06l1.73 1.52 2.25 1.83c.76.72 1.58 1.34 2.46 1.89 1.28.79 2.66 1.42 4 2.13l4.44 1.76c.35.11.98.35 1.23.33.18-.01.26-.1.25-.23 0-.09-.08-.15-.16-.15-.04 0-.08.02-.1.04ZM1.83 41.43c.18.06.39 0 .53-.15.18-.2.16-.51-.04-.7 0 0-.06-.07-.14-.15.09-.08.19-.24-.08-.43a.157.157 0 0 0-.22 0l-.02.03c-.13-.04-.29-.07-.38-.06h-.03c-.31-.19-.62-.37-.77-.39-.46-.08-.77.02-.51.62.18.54.48 1.05.84 1.53.49.66 1.09 1.27 1.65 1.87.95.91 1.96 1.74 3.04 2.48 1.6 1.1 3.33 2.01 5.09 2.83.1.05.22.01.28-.09a.2.2 0 0 0-.09-.27c-1.4-.78-2.75-1.62-4.04-2.55-1.28-.92-2.49-1.93-3.58-3.08-.51-.48-1.05-.97-1.52-1.51Z" class="cls-1"/><path d="M71.46 17.15c-.1.02-.22.1-.36.26-.2.22-.33.67-.36.74l-.48 1.93-1.68 5.25c-.97 2.83-2.31 5.43-4.06 7.67-1.7 2.19-3.81 4.04-6.51 5.31-6.5 3.05-15.34 3.38-23.76 1.66-5.75-1.17-11.2-3.46-15.81-6.24-1.29-.78-2.51-1.57-3.69-2.38-.85-.58-1.68-1.08-2.46-1.7a.327.327 0 0 0-.45-.03c-.13.12-.14.32-.03.45.55.88 1.1 1.74 1.8 2.55 1 1.15 2.19 2.18 3.48 3.12 4.59 3.35 10.54 5.54 16.59 6.85 9.03 1.96 18.53 1.58 25.55-1.63 3.18-1.45 5.72-3.55 7.67-6.14 1.9-2.53 3.23-5.51 4.17-8.7.21-.74.42-1.49.57-2.25.22-1.13.35-2.26.49-3.39l.19-2.14c-.02-.08-.06-.61-.23-.89-.04-.07-.05-.09-.1-.12-.41-.26-.17-.12-.27-.17-.12-.06-.15-.14-.25-.03v.02Z" class="cls-1"/><path d="M.31 40.16c-.17 0-.1.04-.18.07-.19.06-.34.23.76.5.66-.27 1.29-.58 1.91-.96.89-.54 1.72-1.19 2.55-1.78 2.04-1.73 4.13-3.44 6.02-5.33.33-.33.69-.63.96-1.01.44-.61.66-1.25.98-1.93.13-.14.11-.36-.03-.49a.347.347 0 0 0-.49.03c-.25.11-.45.16-.68.29-.47.27-.88.58-1.3.92-2.31 1.92-4.5 4-6.82 5.9L.35 39.83c-.03.13-.05.25-.04.34Z" class="cls-1"/></g></svg>