<svg xmlns="http://www.w3.org/2000/svg" id="Layer_2" data-name="Layer 2" viewBox="0 0 99.49 46.66"><defs><style>.cls-1{fill-rule:evenodd;stroke-width:0}</style></defs><g id="OBJECTS"><path d="M89.48 10.52s.07-.04.12-.04c.08.01.14.09.13.17.12.08.3-.1-.28.65-.11.13-.29.2-.56.3-1.02.35-2.88.42-3.06.45L73.56 13.1c-12.6 1.1-25.12 3.01-37.72 4-2.21.17-4.43.36-6.65.36-.97 0-1.9-.09-2.87-.14-.16.01-.3-.11-.32-.27-.01-.16.11-.3.27-.32.94-.2 1.85-.44 2.8-.61 2.18-.38 4.38-.62 6.57-.89 12.55-1.58 25.1-3.21 37.69-4.46l12.34-.99c.19 0 2.03-.05 3.08.14.24.04.43.31.52.19.35-.5.3.17.21.43Z" class="cls-1"/><path d="m24.58 2.82-.06.08c-1.31 1.82-2.68 3.6-4.09 5.36-1.4 1.75-2.83 3.48-4.28 5.19-1.74 2.06-3.57 4.09-5.49 6.02-1.93 1.94-3.96 3.79-6.1 5.47-.26.2-1.26.93-1.91 1.4 1.61.88 3.2 1.82 4.76 2.79 1.74 1.09 3.44 2.23 5.11 3.41l13.04 10.77c-.26-2.42-1.16-9.83-1.07-12.98.04-1.52.71-2.34 1.06-2.47 1.26-.48 8.14-1.3 16.91-2.14 12.98-1.23 30.17-2.57 38.91-3.42l14.91-.88-2.2-10.35c-1.31 0-3.95-.02-7.39-.14-1.69-.06-3.54-.21-5.55-.31-.12 0-.23-.09-.23-.22 0-.12.09-.23.22-.23 1.99-.27 3.83-.55 5.52-.72 4.98-.5 8.31-.57 8.31-.57.52 0 .98.35 1.09.86l2.8 12.52c.07.34 0 .69-.21.96s-.53.44-.87.46l-16.15 1.09c-10.07.99-31.31 2.68-44.47 3.96-4.99.49-8.79.89-10.28 1.21-.02.15-.03.32-.04.48-.12 3.31.85 11.45 1.01 13.15.01.13.19 1.67.05 2.17-.25.88-.87 1.05-1.47.89-.2-.05-.94-.51-1.96-1.33-3.49-2.8-11.65-9.96-13.15-11.02a104 104 0 0 0-5.01-3.34c-1.7-1.06-3.43-2.08-5.2-3.03-.23-.12-.68-.39-.87-.68q-.24-.36-.21-.78c.02-.38.24-.87.69-1.32.71-.72 2.15-1.53 2.55-1.85 2.07-1.63 4.03-3.42 5.9-5.31 1.88-1.89 3.66-3.88 5.36-5.91 1.43-1.69 2.84-3.41 4.23-5.15 1.38-1.74 2.73-3.5 4.02-5.29.14-.19 1.1-1.42 1.62-1.56.44-.12.83-.02 1.16.26.81.71 1.3 2.12 1.46 3.96.23 2.8 0 6.71-.08 9.81-.03 1.21.08 2.25.05 3.11-.01.41-.2.56-.22.91.05.07.02.17-.05.21s-.17.02-.21-.05c-.35-.13-.54-.15-.83-.47-.57-.63-.67-1.75-.8-2.92-.34-2.92.16-6.81 0-9.75-.05-.9-.1-1.7-.28-2.3Z" class="cls-1"/><path d="M93.04 11.5c-.11-.33-.19-.63-.24-.84-.13-.62.23-1.07.85.27.04.07.02.17-.06.21.3.65.73 1.45.95 1.74l.47.82c.24.32.45.65.61.99-.03-.06-.06-.1-.08-.11l.04.07-.11-.04c-.11.15-.14.79-.14.79s-.12.03-.26-.01c.48.58.91 1.18 1.23 1.81.18.34.01.56 0 .6a.9.9 0 0 1-.46.3l1.02 1.35.5.69s.11.14.14.16c1.93 1.9 2.28 2.78 1.82 2.81.04.48-.7.14-2.47-1.67l-.05-.05-.13-.13-.09-.09-.19-.2.08.1.16.18.19.22-.03-.04.02.03s-.08-.06-.21-.15c-.41-.11-.54 1.01-.54 1.01s-.04-.03-.09-.08c-.06-.07-.28-.3-.37-.4l-.73-.82-1.94-1.94-1.91-2.27c-.94-.89-1.92-1.73-2.91-2.51l-1.89-1.26c.15.13.29.26.4.37L91 18.02l2.19 2.32.87.84c.13.14.44.5.51.61.14.24.09.43.07.49-.07.21-.21.35-.46.38-.05 0-.23.04-.44-.13l-8.06-7.76-2.05-1.46 4.06 4.11c.91.83 2.63 2.15 3.9 3.39.69.68 1.26 1.33 1.54 1.89.32.63-.2.88-.37.94-.1.04-.29.07-.52-.04-.1-.05-.46-.37-.61-.49l-.25-.21v.06c-.14.35-.46.72-1.19.55-.16-.04-.37-.11-.63-.24-.1 0-.19-.03-.3-.06-.14-.05-.31-.2-.48-.34-.47-.26-1.03-.61-1.69-1.05-.96-.64-1.87-1.35-2.76-2.11-1.3-1.1-2.55-2.28-3.82-3.37-.81-.7-1.95-1.47-2.87-2.3-.45-.42-.85-.85-1.15-1.3-.33-.51-.06-.79.22-.95.1-.05.59-.06.79 0l.1.06c.05-.49.52-1.08 1.89-.45l.96.45.48.29c-.1-.21-.17-.4-.18-.58s.09-.74.79-.69c.26.02.81.15 1.68.74l.65.49c-.1-.19-.16-.39-.19-.59-.02-.15.2-.8.86-.6.37.12 1.31.55 1.33.56l1.44.99a5 5 0 0 1-.44-.63c-.23-.42-.25-.79-.12-1.01.14-.24.63-.36 1.23 0 .15.09.32.2.5.33-.07-.18-.11-.34-.1-.48.02-.3.3-.68.92-.4.14.07.34.17.56.31-.12-.33-.15-.65-.06-.91.07-.19.5-.6 1.08-.21.54.37 1.78 1.59 1.85 1.67.1.12.21.24.32.36Zm-3.97 1.44c.26.14.47.27.58.37.76.71 1.46 1.47 2.14 2.24 1.15 1.32 2.22 2.69 3.36 4.01l-1.3-1.37-4.61-5.09-.16-.16Zm4.34.44c.23.23.45.47.65.72.12.14.23.29.34.44l.04.07.1.17-.14-.19z" class="cls-1"/><path d="m75.71 12.34 1.84 1.18 2.46 2.11c.52.38 1.02.78 1.52 1.18 1.01.82 1.98 1.68 2.93 2.58.42.39 1.07.87 1.56 1.38.27.28.49.57.64.86.13.26.07.44.06.5-.06.24-.47.81-1.07.32-.04-.03-.11-.1-.18-.19l-.02.08c-.08.28-.61 1.02-1.35.38-.08-.07-.35-.4-.48-.52l-.66-.58a.849.849 0 0 1-1.1 1.28l-.59-.44c.12.26.06.47 0 .61-.08.17-.31.63-.95.41-.3-.1-.62-.29-.93-.53l-.07-.05c.05.07.09.13.12.19.25.5-.08.76-.21.84-.11.07-.31.16-.58.06-.1-.04-.47-.33-.62-.45l-.73-.52-3.14-2.45c-1.38-.95-2.75-1.88-4.18-2.74q-.825-.495-1.68-.96l1.37 1.03 2.38 1.96 3.05 2.34c.59.48.87.7.99.81.09.08.13.12.15.14.24.25.2.42.21.47.03.4-.17.59-.41.71-.15.07-.45.14-.81-.04-.37-.19-1.17-.87-1.27-.95l-.49-.4c.13.17.24.33.32.5.21.42-.03.67-.13.76-.12.11-.31.23-.61.15-.06-.02-.29-.16-.39-.22l-.63-.42c.05.26.02.57-.41.78-.1.05-.42.14-.79-.07-.08-.05-.18-.12-.3-.2.05.18.03.34 0 .44-.09.27-.27.4-.44.47s-.68-.1-.91-.23l-1.19-.72-.53-.4c-.03.2-.13.4-.42.55-.09.05-.23.08-.4.08l.08.05c.12.06.39.26.45.33.45.52.04.89-.21.99-.06.03-.22.1-.47.01-.5-.18-1.02-.51-1.54-.9-.19-.14-.38-.3-.57-.45L62.7 23.3s-.03.09-.05.13c-.15.25-.47.33-.71.18-1.31-.69-2.63-1.37-3.89-2.14-1.87-1.15-3.66-2.44-5.53-3.59-.12-.07-1.89-.91-2.77-1.62-.47-.38-.71-.79-.74-1.08-.07-.65.25-.93.85-.94.3 0 .9.25 1.21.37l.73.36q-.27-.285-.51-.6c-.35-.48 0-.78.13-.86.08-.05.23-.12.45-.06.08.02.28.13.49.24.03-.42.3-.58.76-.53.31.04.9.35 1.21.48.39.15.78.33 1.16.51.11-.48.46-.61 1.01-.46.23.06.61.32.91.48-.07-.3.06-.55.16-.66s.29-.26.64-.23c.18.02.59.14 1.31.47l.54.27c.03-.05.06-.11.1-.16.2-.26.72-.46 1.42-.26.58.16 1.36.55 1.95.86.03-.21.15-.42.46-.57.37-.18.92-.16 1.52.07.31.12.65.29.96.47-.23-.39-.06-.7.1-.87.1-.1.29-.26.66-.21.42.05.86.19 1.29.39 0-.05.01-.09.03-.13.05-.15.41-.51 1.04-.32.26.08.64.23 1.05.4-.13-.18-.18-.33-.19-.4-.07-.41.11-.67.42-.82.28-.14.73-.16 1.27 0 .41.13.91.36 1.36.61l-.05-.1c-.26-.56.07-.75.39-.8.1-.02.52.13.69.22l.59.28-.03-.03c-.05-.14-.05-.22-.03-.26.05-.16.22-.44.52-.2.04.03.12.12.2.22Zm-.54 7.25.31.23 1.13.9 1.55 1.17c-.46-.31-.94-.59-1.17-.78l-2.28-1.84zm6.94 1.25h.02l.45.42-.63-.54zm-16.59-3.69c.61.36 1.2.74 1.79 1.13 1.09.72 2.16 1.46 3.23 2.23l.34.28c-.91-.58-1.82-1.09-2.4-1.5l-1.53-1.03-1.42-1.1Zm7.58-.87c.51.32 1.02.65 1.51 1 .53.37 1.06.75 1.57 1.15l.98.8c-.56-.41-1.12-.8-1.69-1.19l-2.37-1.75Z" class="cls-1"/><path d="M44.88 15.52c.09-.2.52-.68 1.29-.44.55.17 1.61.62 2.34.94-.19-.41 0-.67.1-.79a.7.7 0 0 1 .7-.26c.1.02.47.23.62.32l.52.27.04-.02c.22-.1.95.04 1.84.49 1.22.62 2.92 1.66 4.07 2.41q1.11.615 2.19 1.26c1.27.76 2.51 1.57 3.73 2.46.36.26 1.81 1.02 2.53 1.71.4.38.62.78.66 1.09.1.8-.35 1.04-.77 1.1-.16.02-.39.01-.66-.12-.37-.18-1.05-.8-1.4-1.05l-.67-.49c.08.13.11.24.12.31.08.51-.12.84-.52 1.03-.28.13-.86.16-1.5-.24-.76-.48-1.88-1.56-2.07-1.71-1.17-.94-2.36-1.83-3.59-2.66l.38.29c1.14.86 2.3 1.91 2.83 2.41.17.17.29.29.34.35.18.22.22.41.23.49.13.63-.2.97-.57 1.15-.21.11-.67.21-1.21-.09-.55-.3-1.73-1.4-1.81-1.47-.45-.34-.91-.68-1.37-1.02.44.47.77.91.95 1.3.38.82-.14 1.22-.35 1.34-.18.1-.49.24-.9.07-.2-.08-.88-.66-1.15-.91l-1.61-1.22-.28-.18.34.28c.27.23.87.6 1.06.86.2.28.25.56.23.8-.03.33-.17.68-.65.92-.23.11-.68.2-1.23-.09-.2-.1-.46-.29-.74-.51.21.53 0 1.02-.06 1.1-.23.3-.78.65-1.57.29-.35-.16-.92-.58-1.43-.99.04.53-.43.88-.59.96-.23.11-.67.2-1.21-.06-.53-.25-1.46-.97-2.1-1.48.06.26 0 .46-.07.6-.1.2-.41.72-1.16.45l-.12-.05c.05.13.07.26.06.38-.01.33-.12.7-.62.93-.29.14-.92.15-1.61-.28-.48-.3-1.09-.79-1.59-1.22.01.09.02.17.01.25-.03.37-.17.77-.71 1.04-.2.1-.7.21-1.31-.11-.78-.41-2.52-1.79-2.74-1.95l-1.63-1.14a.8.8 0 0 1-.33-.13l-3.28-1.95-2.47-1.49c-.74-.48-.76-1.12-.64-1.49.06-.22.25-.48.52-.65-.58-.42-1.18-.9-1.46-1.23-.45-.54-.45-1.07-.35-1.36.09-.25.69-.99 1.73-.6.68.25 2.07.99 2.83 1.41-.02-.23.05-.41.11-.53.14-.26.49.81.87.77.25-.03 1.18-.84 1.59-.58l.6.41c.2-.31.67-.73 1.41-.44.43.17 1.2.57 1.81.89-.22-.47-.06-.89.05-1.04.14-.18.63-.54 1.36-.25.22.08.52.23.85.41.04-.49.3-.74.58-.9.21-.12.49-.2.84-.13.24.05.71.35.96.46l.04.02v-.05c-.07-.58.2-.83.5-.95.16-.06.38-.1.65-.01.33.11.95.58 1.27.76l1.13.61a2.2 2.2 0 0 1-.31-.83c-.03-.25.38-1.56 1.6-1.13.48.17 1.68.74 1.73.77l.16.08Zm15.43 9.44c.15.15.2.3.1.41-.31.33-.26 0-.1-.41m-9.2-9.11c-.1-.03-.16-.08-.12-.14.05-.11.1.01.12.14" class="cls-1"/><path d="M23.85 3.21s.08.07.12.12c.29.37.96 1.37 1.45 2.25.56.99.46 1.96.3 2.24-.04.07-.42.37-.96.34l.02.03c.35.51.54 1.04.57 1.58.03.52-.15.82-.4 1 .13.14.25.29.36.43.47.65.74 1.33.73 2.05-.03.86-.49 1.2-.95 1.34-.06.02-.13.03-.2.04.56.66 1.06 1.3 1.36 1.76.54.82.5 1.54.42 1.77-.07.21-.44.72-1.04.85l.22.2 2.78 2.89c.92 1 1.31 1.55 1.42 1.8.14.3.18.55.17.77.96-.01 2.23.02 3 .29.84.3 1.27.86 1.26 1.56 0 .33-.32 1.06-1.38 1.06-.63 0-1.85-.21-3.18-.57l-.02.02-.04.04c.02.14.01.26 0 .35-.07.31-.52.8-1.31 1.1-1.01.39-2.81.64-3.21 1.01-.1.1-.2.52-.34.94.37.66.47 1.29.28 1.72-.08.18-.18.4-.36.53-.2.15-.42.29-.72.26-1.27-.12-1.6-.76-1.51-1.66.02-.19.07-.4.15-.62-.76-.57-1.84-1.19-2.06-1.38l-6.85-6.31c-1.3-1.21-2.45-2.36-2.86-2.94-.34-.48-.35-.89-.32-1.08.09-.46.34-.81.93-.89.48-.06 1.09.08 1.71.41h.01a4.4 4.4 0 0 1-.51-.78c-.42-.9 0-1.47.43-1.66.15-.06.36-.12.63-.09-.12-.2-.21-.4-.25-.6-.22-.93.27-1.26.76-1.37.17-.04.43-.06.74.06.08.03.16.07.25.13.17-.36.34-.69.4-.93.02-.06.03-.12.04-.18-.16-.63-.04-1.04.21-1.32l.04-.14c.14-.44.36-.8.68-1.04.65-.5 1.14-.59 1.51-.52.03-.24.13-.44.21-.55.23-.32.73-.61 1.46-.44-.28-.54-.39-1.11-.31-1.69.01-.1.51-.88 1.25-.97-.16-.43-.24-.86-.19-1.32.04-.33.71-1.28 1.85-.67.28.15.71.42 1.16.71-.19-.49-.38-.96-.43-1.24 0 0 .88-1.84.54-.71Zm-.24 28.38c.02.09-.03.17-.15.22-.06.03.05-.12.06-.17zm1.72-3.91.07.05h-.03l-.07-.07zm1.89-1.48.06.02.03.03-.01.03-.02.04-.03-.07zm-7.54-13.85.32.33-.25-.16-.08-.17Zm4.66-3.73c.25-.03.45 0 .3.18-.08.09-.19-.03-.3-.18m-.16-2.08c.04.28 0 .46-.21.46s.06-.35.12-.42c.01-.01.05-.03.09-.05Zm-2.15-.31-.06.02c-.05 0-.49.2-.39.02.09-.15.25-.14.45-.03Z" class="cls-1"/><path d="M24.27 31.95c.64.76 1.18 1.53 1.55 2.28 1.35 2.72.79 2.82-1.16.81a5 5 0 0 1-.29-.36l-.93-1.12-2.69-2.78-3.25-3.08c-1.12-.85-2.2-1.62-3.07-2.27l-.67-.49 5.46 5.56c1.19 1.34 2.61 2.51 3.85 3.84.56.6 1.07 1.24 1.54 1.91.08.11.67 1.23 1.18 2.12.24.35.5.73.65.96.35.56-.08 1.01-.16 1.06-.06.03-.38.06-.72-.16.33.32.66.65.95.99.41.47.76.94.97 1.39.3.62-.14.9-.3.97-.11.05-.31.1-.56-.02-.07-.03-.2-.13-.35-.25.1.14.17.27.18.33.04.29-.07.49-.22.61-.11.09-.32.25-.69.12-.53-.19-1.11-.61-1.69-1.15-1.05-.98-2.12-2.36-2.86-3.06-1.6-1.52-3.26-3.03-4.97-4.49-.33-.28-.65-.55-.98-.82-.21.2-.56.31-1.08.04-.19-.1-.63-.42-1.49-1.21l-2.21-1.9-1.1-1-.06.03s-.07.03-.11.05l-.09.03c-.13.07-.3.11-.52.07-.09-.02-.46-.23-.6-.34-.64-.42-1.7-1.18-1.79-1.25-.55-.39-1.67-.96-2.5-1.55-.51-.37-.92-.75-1.1-1.13-.1-.18.04-.83.49-.94.01-.21.06-.47.4-.6.08-.04.19-.07.32-.07 0-.06 0-.1.02-.14.18-.54.58-.79 1.14-.78.29 0 .72.2 1.04.37-.28-.33-.71-.86-.93-1.11-.07-.08-.12-.13-.15-.16-.04-.05-.06-.09-.08-.11-.39-.62.18-.99.32-1.06.21-.11.73-.12 1.39.22.34.17.76.44 1.23.74.05-.19.11-.38.19-.56l.03-.08c-.1-.15-.2-.3-.23-.41-.12-.44 0-.77.44-1.01.1-.05.37-.09.72.04l.04-.04v-.04c.1-.26.26-.5.51-.64l-.04-.08c-.04-.08-.06-.14-.07-.16-.12-.35-.02-.57 0-.66.16-.46.5-.64.92-.65.05 0 .52-.03.85.46.04.06.13.21.22.35.41.45 1.4 1.17 1.85 1.77l.14.21 1.61 1.28c1.06.81 2.09 1.64 3.1 2.51l-3.7-4.04c-.33-.37-1.14-1.41-1.82-2.23a.14.14 0 0 1-.14-.12.24.24 0 0 0-.06-.11l-.05-.06c-.22-.23-.67-.41-.86-.58-.31-.29-.26-.54.11-.78.09-.05.41-.03.77.28.75.62 2.35 2.36 2.85 2.84l6.24 6.63 1.99 2.45 1.25 1.74c.13.17.11.41-.05.55-.04.04-.08.06-.13.08Zm-8.58-1.72L20 33.95l1.43 1.42 2.2 2.31.47.69.48.7.1.21c.03.05.05.1.08.15l.07.11c-.32-.3-.61-.59-.86-.86l-8.29-8.47Zm-3.98-12.26c-.07-.09-.08-.16 0-.21.1-.06.09.12 0 .21" class="cls-1"/></g></svg>