<svg xmlns="http://www.w3.org/2000/svg" id="Layer_2" data-name="Layer 2" viewBox="0 0 86.4 65.15"><defs><style>.cls-1{fill-rule:evenodd;stroke-width:0}</style></defs><g id="OBJECTS"><path d="M15.59 63.96s.02.03.04.04c.05.03.01 0-.04-.04-.14-.24.78-.84.96-1.16l2.07-4.75c1.04-2.48 2.12-4.98 3.44-7.33.86-1.54 1.82-3.01 2.96-4.36 4.14-4.93 8.89-8.03 13.9-10.01 5.81-2.29 11.98-2.9 17.98-3.23 2.72-.15 5.38-.33 7.99-.4.35.01.65-.27.66-.62 0-.35-.27-.65-.62-.66-2.92-.24-5.92-.52-8.98-.49-4.49.04-9.05.65-13.49 1.86-6.91 1.89-13.51 5.51-19.04 12.2-1.21 1.46-2.24 3.05-3.14 4.72-1.32 2.44-2.37 5.04-3.39 7.61l-1.62 5.01c-.06.39-.5 1.08-.45 1.45.07.49.14.82.57.52.09 0 .16-.07.16-.15 0-.09-.07-.16-.15-.16-.05-.05.02-.1.06-.1.03 0 .09.03.14.07Z" class="cls-1"/><path d="M83.57 25.52a67 67 0 0 0-5.18 4.56c-1.86 1.81-3.64 3.71-5.33 5.61-1.17 1.32-2.32 2.67-3.35 4.1-.7.97-1.35 1.98-1.91 3.05-.04.08-.26.57-.51 1.17-.61-2.96-1.14-7.61-1.46-10.44-.05-.44.03-.89-.17-1.17-.31-.45-.18-.07-.62-.3 0-.09-.06-.16-.15-.16s-.16.06-.16.15c-.57.17-.11-.28-.55.18-.17.18-.16.47-.19.77-.24 2.03.26 5.38.66 8.31.33 2.45.79 4.62 1.15 5.59.28.74.72 1.06.96 1.15.04.01 1.08.07 1.53-.94.4-.88 1.33-3.09 1.43-3.27.52-.97 1.12-1.9 1.77-2.79.99-1.37 2.09-2.66 3.22-3.91 1.66-1.86 3.4-3.71 5.23-5.48 1.81-1.75 3.71-3.42 5.69-4.91.21-.16.53-.44.66-.73.09-.21.13-.45.09-.69-.03-.22-.12-.41-.24-.58-.1-.14-.25-.26-.38-.35-1.22-.85-3.58-3.48-6.27-6.68C73.43 10.52 65.81.45 65.81.45 65.51.06 65-.1 64.54.06c-.46.15-.78.59-.78 1.08 0 0-.2 6.84.07 11.87.13 2.49.45 4.51.54 5.11.02.3.27.52.56.51.3-.02.52-.27.51-.56.03-.6.32-2.59.45-5.05.15-2.75.18-6.04.18-8.46 2.7 3.5 7.56 9.74 11.7 14.65 2.3 2.73 4.4 5.05 5.81 6.33Z" class="cls-1"/><path d="M65.04 18.02c.42-.46.12.13.21-.6.02-.15-.09-.17-.18-.33-.16-.29-.53-.45-1.01-.67-.72-.32-1.81-.43-3.08-.5-5.52-.3-14.95 1.09-16.58 1.37-10.56 1.99-20.46 6.37-28.28 12.91-4.85 4.05-8.97 8.89-11.81 14.53-1.83 3.64-3.07 7.61-3.79 11.84-.03.16.06.31.22.34s.31-.06.34-.22c1.09-4.03 2.76-7.7 4.76-11.13 3.05-5.22 7.01-9.78 11.76-13.54 7.65-6.04 17.19-10.06 27.33-11.74 1.43-.26 9.05-1.14 14.44-1.44 1.36-.07 2.57-.07 3.5-.11.59-.03 1.27-.45 1.3-.14s.39-.09.34-.32c-.08-.34-.07-.06.25-.13.04.07.14.1.21.06s.1-.14.06-.21Z" class="cls-1"/><path d="M68.27 41.94c.09.07.17.12.23.15.55.19 1.26.29 1.34-.78.17-.89.21-1.83.14-2.8l.26-.37c.15.1.25.15.26.15.52-.01.8-.24.9-.66h.07c.12 0 .41-.01.75-.34 1.01-1.03 1.99-2.11 2.92-3.24.21-.05.38-.18.45-.26.15-.15.25-.38.3-.68.48-.59.94-1.2 1.41-1.8.21-.1.34-.31.41-.54l.08-.1.55-.73c.07.02.15.03.23.03.28 0 .55-.12.73-.3.23-.22.39-.74.31-1.43l.33-.44c.27.3.48.51.59.59.53.36.92.1 1.1-.08.24-.24.37-1.09-.11-2.14l-.14-.29.22-.29c.3.37.58.7.79.93.45.49.95.45 1.02.38.12-.12.11-.53-.12-1.04l.02-.02s.02-.2-.21-.43c-.02-.03-.05-.04-.09-.05l-.06-.09c-.98-1.43-2.97-3.71-3.21-4.01l-.89-1.08c-.97-1.31-1.99-2.58-3.03-3.83l-.85-1c-.86-1.31-1.76-2.6-2.7-3.86-1.65-2.23-3.41-4.35-5.23-6.17-.03-.03-1.43.34-1.08 1.08s0 .01 0 .01v.02c.02.08.05.17.1.27.02.05.06.11.1.17-.48-.21-.84-.05-1 .04-.35.19-.63.49-.62 1.03 0 .4.45 1.38 1.26 2.66-.11.07-.21.14-.27.21-.43.45-.53.93-.36 1.46.13.42.75.96 1.02 1.37l.29.44c-.33-.16-.6-.14-.8-.02-.17.1-.58.3-.53.91.02.32.19.82.48 1.44a.96.96 0 0 0-.77.11.98.98 0 0 0-.37 1.28l.06.11c-.43.01-.7.2-.88.43-.14.19-.26.43-.24.75 0 .09.04.21.08.34h-.05c-.83.03-1.13.45-.99 1.2.07.36.45.96.67 1.4.34 1.36.85 3.09 1.54 4.87.12.32.26.65.4.97-.04.11-.06.22-.07.34v.12l.23 4.33c.25 1.71.57 3.42.8 5.14.15 1.12.26 2.24.27 3.36l.02 1.6c0 .39.29.72.67.78.39.06.76-.18.87-.55 0 0 .14-.44.36-1.04Zm-2.49-26.27c-.07-.14-.16-.22-.26-.16-.14.09.08.13.26.16m9.94 8.21c-.09-.15-.08-.14-.18-.3l-.21-.3c.15.24.3.48.45.71zm4.91.5-.14-.19-.1-.13.21.36zm-11.96 6.85c-.45-1.31-1-2.62-1.56-3.87.52 1.31 1.06 2.63 1.56 3.87m4.08.33-.5-.75.26 1.09.23-.34Zm-3.66 8.98c.07.09.16.13.26.07.14-.08-.08-.08-.26-.07" class="cls-1"/><path d="M53.57 32.69c.19.05.37.04.5.01.42-.09.91-.33.89-1.13 0-.23-.08-.59-.42-.99-.4-.48-1.42-1.28-2.74-2.26l-1.16-.86-.12-.11c-.2-.19-.71-.72-1.37-1.42 1.13.62 2.42 1.36 3.62 2.11l3.62 3.13c.28.2.91.7 1.09.71.39.02.87-.07.97-.67.22.11.44.22.65.32.79.39 1.17-.14 1.28-.35.08-.16.18-.43.03-.79-.11-.27-.91-1.18-1.26-1.53l-1.26-1.25c1.46 1.4 2.86 2.73 3.82 3.58.91.8 1.62 1.17 1.78 1.16.72.02.9-.39.94-.77h.18c.71.01.89-.42.95-.79.02-.16 0-.39-.13-.64-.13-.24-.56-.65-.68-.91l-1.3-2.2-.43-.63c.26.33.54.65.82.96.81.88 1.7 1.64 2.66 2.26l.68.25c.64-.05.84-.35.66-.92-.1-.3-.5-.86-.65-1.17l-1.29-2.45c-.56-.89-2.25-3.05-3.4-5.1-.35-.62-.67-1.23-.87-1.77 1.35 1.68 3.39 4.35 4.52 5.85.1.34.34.86.58 1.1.22.23.45.23.63.07.03-.02-.22-.82-.87-1.84-1.05-1.64-2.8-4.2-3.97-5.86-.24-.35-.53-1.17-.78-1.49-.49-.64-.95-.63-1.36.11-.4.8-.14 2.09.56 3.49.1.2.21.4.32.61l-.44-.62c-.09-.12-2.12-2.58-3.01-3.43-.29-.28-.54-.43-.66-.48-.86-.37-1.33.1-1.53.53-.07.14-.1.33-.11.56-.58.02-1.29.36-2.11 1.15s.25.3.25.3c.11.09.23.17.29.22l2.88 2.64c-.12.15-.26.29-.42.4l-2.75-3.26c-.16-.12-.31-.25-.25-.3l-.02-.03s-.08-.07-.09-.09c-.11-.11-.2-.15-.24-.17-.79-.47-1.32.03-1.52.22-.04.04-.11.11-.18.22-.45-.37-.89-.71-1.19-.92-.92-.65-1.79-.16-1.84-.11-.29.33-.58.99-.1 1.82.69 1.19 3.36 3.71 3.61 3.98l.94 1.14c-.54-.51-1.06-1.01-1.56-1.48l-3.03-2.93c-.31-.32-.82-1.06-1.21-1.47-.42-.44-.85-.64-1.1-.69-.52-.1-.94.02-1.27.31-.22.2-.55.54-.53 1.22 0 .28.38 1.05 1.14 1.95l-1.62-.72c-.64-.43-1.14-.65-1.34-.65-.78-.01-1.08.44-1.22.69h-.01l-.12-.08-.07-.08-.21-.24c-.03-.12-.07-.19-.15-.17h.01l.13.17.02.13v.03c-.19-.12-.32-.21-.26-.27.03-.03.06-.05.09-.05-.13-.14-.26-.27-.35-.34-.33-.26-.68-.26-.91-.26-.65-.03-1.33.27-1.43 1.5-.02.22.05.66.48 1.15.1.12.28.27.52.46-.18.01-.35.03-.52.05a1.05 1.05 0 1 0 0 2.1c.66.07 1.36.37 2.17.64 1.24.41 2.65.92 4.03 1.58l3.86 3.05 2.88 2.03c.33.24 1.18.8 1.42.87.37.12.64.03.79-.03.05-.02.1-.05.17-.09Zm4.2-10.46c-.13-.21-.27-.42-.4-.62l-.34-.55c.26-.52.36-1.16.31-1.78-.43-.45-.84-.87-1.12-1.13-.07-.06-.15-.15-.15-.15s.41-.06.82-.15c-.31-.48-.78-.79-1.38-.76-.01.65.23 1.64.83 2.76.2.38.44.78.7 1.21l-.03.06-.09.15-.1.14.57.52.52.49-.13-.19Zm-12.43-1.74c-.18-.24-.36-.37-.49-.23-.23.25.12.27.49.23m19.77 5.82-.19-.34c-.27-.43-.81-1.13-1.42-1.98.52.79 1.05 1.58 1.6 2.32ZM16.53 60.75c.07-.12.11-.23.14-.34.09-.05.13-.09.04-.11.45-.25.54-.64.44-.84-.1-.21-.14-.63-.63-.77l-.3-.07s-.03-.03-.08-.01h.07v.04c-.02.06-.09.05-.18.02l.06-.04.05-.02-.3-.05h-.08c-.1-.07-.19-.12-.19-.12l-1.54-.25-5.51-.36c-.37-.02-1.13-.16-1.74-.15-.46 0-.87.1-1.14.27-.63.39-.52.86-.33 1.21.1.19.99.53 1.38.7l1.89.67.37.15c-.03.12-.02.27.1.46.08.13.25.27.49.36.35.13.94.19 1.12.23.84.19 1.9.57 2.89.67l.39.03h.02l.7.17.1.02-.09.78c-.41-.09-.97-.09-1.14-.14v-.02c0-.09-.06-.16-.14-.16l-.4-.04c-.17-.06-.33-.09-.42-.04l-.26-.02c-.19.07-.15.2-.12.3.04.14.62.38.79.6.18.2 1.34 1.05 1.87 1.26.46.18.77-.1.94-.25.22-.18.47-.58.63-1.12.23-.76.21-1.79.24-2.18 0-.03-.1-.44-.13-.79Zm.03-.29.11-.05v-.05l.03-.06h.02-.02l-.1.05-.05.02s-.02.06-.02.1h.03Zm-1.98-.11.52.15.05-.09h-.02l-.55-.05ZM1.07 57.16a.64.64 0 0 0 .33-.21c.22-.26.37-.64.43-.81l.63-2.76c.11-.16.07-.37-.09-.48a.34.34 0 0 0-.48.09c-.33.39-.55.76-.68 1.15-.19.55-.2 1.13-.36 1.78-.02.12-.16.35-.19.59-.04.28.05.45.04.58 0 .46-.05.58.31.2.04-.03.05-.08.05-.13Z" class="cls-1"/><path d="M.34 57.45h.02s.02.04.04.05c.05.01 0-.01-.04-.04-.04-.14.32-.56.36-.66l.98-3.05c.74-1.83 1.62-3.63 2.52-5.43.67-1.34 1.39-2.66 2.09-3.97.71-1.34 1.39-2.68 2.14-3.96.09-.14.06-.33-.08-.43a.317.317 0 0 0-.43.08C6.46 42.05 5 44.16 3.81 46.43 2.62 48.69 1.7 51.09.87 53.45l-.78 3.22c0 .12-.08.61-.05.8.02.16.09.24.16.24.08.02.17-.03.19-.11.02-.06 0-.12-.05-.15M28.11 39.45l.43-.06c.5-.08.93-.23 1.23-.4.45-.25.55-.57.6-.7.11-.28.17-.69.03-1.05l2.44-.21c.5-.07 1.74-.16 2.06-.24.71-.17.92-.69.98-.85.08-.22.11-.45.07-.67 1.03-.12 2.01-.28 2.92-.48.57-.13.74-.45.8-.54.08-.12.18-.37.21-.66.24-.02.44-.08.59-.14l.33-.03c.38-.06 1.31-.04 1.82-.22q.435-.165.69-.45l1.1.12c.45.02 1.46.04 1.63-.14.13-.14.25-.33.21-.57l.2.02 2.74.05s.59.04.8.02c.36-.03.56-.2.62-.27.26-.29.33-.61.1-.97-.12-.2-.38-.42-.77-.54-.29-.08-.7-.12-1.03-.16l-.04-.03.18-.06c.44-.16.59-.42.65-.52.25-.42.45-1.42-.66-1.68l.02-.06.03-.09c.17-.21.19-.44.19-.54-.02-.24-.09-.42-.2-.56-.17-.34-.53-.63-1.21-.8-.56-.14-1.9-.19-4.3 0-1.21.1-2.42.21-3.63.35.47-.12.95-.27 1.37-.43.81-.32 1.43-.75 1.71-1.2.26-.43.23-.8.09-1.1l-.02-.03c.42-.32.74-.67.94-1.02.33-.58.18-1.07-.29-1.48-.39-.34-2.08-.46-2.4-.46-.08-.17-.23-.34-.47-.49-.29-.18-.74-.3-1.28-.23-.83.1-2.07.62-2.42.75l-3.74 1.69c-1.56.48-3.19 1-4.78 1.64l-.36-.11s-1.69-.39-2.06-.33c-.56.09-.68.49-.66.79 0 .13.04.39.36.63l.2.14c-1.59.77-3.1 1.64-4.46 2.55-.42.25-.47.55-.49.63-.03.12-.01.43.13.7l-.03.08v.09l.03.12-.3.04-.23.04c-.42-.1-.93-.23-1.07-.19-.43.13-.86.41-.72 1l-.08.12c-.04.09-.04.07-.07.15l-.02.07-.3-.03.13.03s-.73-.18-.84-.17c-.51.06-.8.36-.95.69-.1.21-.25.61.07 1.15.16.26.67.68 1.5.88.65.16 1.59.28 2.32.36l-1.1.06-1.54.07c-.32.02-.97-.05-1.26.02-.44.1-.72.35-.89.58-.28.38-.47.91-.05 1.61.04.07.1.14.17.22h-.02c-.2.02-2.4.25-3.26.4-1.1.2-1.29 1.17-1.28 1.31.02.4.25.88.89 1.16.7.31 2.71.38 3.06.39l.86.02-.32.05-3.51.45c-.12.01-1.61.17-2.18.3-.34.08-.55.22-.63.29-.43.39-.4.81-.18 1.19.09.15.47.51 1.21.54.96.04 3.21-.17 4.16-.25 2.13-.17 4.3-.22 6.43-.52 2.17-.3 4.29-.84 6.37-1.47.2-.04.35-.18.43-.36m8.76-15.31c.66-.24 1.64-.57 2.61-.96-.25.05-.49.1-.74.16l-.47.11-1.41.7Zm.08 0 .1-.03s-.07 0-.1.03m-18.1 6.83c-.05-.12-.06-.24-.05-.36-.04-.04-.07-.05-.09.02-.05.15 0 .26.14.34" class="cls-1"/><path d="m17.65 56.68.08-.03c.5-.21.71-.56.77-.8.08-.33.01-.63-.19-.89-.17-.22-.6-.43-.89-.48.85-.21 1.51-.39 1.77-.5.49-.2.65-.54.69-.66.16-.42.09-.81-.25-1.14-.1-.09-.29-.27-.68-.3l-.28-.02c.14-.04.28-.09.39-.13.64-.25.98-.67 1.05-.98.08-.34.09-.89-.57-1.13l.94-.24c.35-.1 1.2-.36 1.36-.49.4-.33.45-.72.4-1.02-.02-.13-.06-.34-.21-.54.69-.51 1.38-1.02 2.06-1.54l.14-.11.36-.1c.17-.04.58-.18.69-.24.18-.09.27-.18.31-.23.24-.28.32-.53.3-.76.63-.52 1.26-1.05 1.88-1.58l3.47-2.92 1.58-1.36c.1-.08.6-.49.8-.67.09-.08.16-.15.18-.18.71-.84.04-1.56-.13-1.7-.03-.02-.06-.05-.09-.07-.07-.25-.25-.48-.68-.58-.3-.07-.8-.01-1.36.27-.89.45-2.14 1.45-2.58 1.79l-1.17.64c-1.5.79-2.97 1.58-4.49 2.31-.99.47-1.99.92-3.03 1.31-.11.04-.26.09-.43.15l.31-.41 2.41-4.47.6-1.3.11-.17c2.87-4.5 3.35-6.42 2.61-6.42-.23-.49-1.12.05-2.71 2.15-.04-.2-.12-.39-.25-.57-.43-.58-1.22-.75-1.85-.41l-.13.08c-.06-.03-.12-.06-.19-.08-.38-.13-2.39.55-2.45.58-.18.11-.35.22-.52.35a.79.79 0 0 0-.7.05 16.15 16.15 0 0 0-5.28 4.28c-2.03 2.5-3.4 5.56-5.17 8.27l-2.72 4.08-1.16 1.83c-.16.33-.32 1.2-.25 1.38.06.16.15.33.27.45-.07.22-.1.61.13.86l-.14.03c-.79.17-1.09.69-1.14.87s0 .67.41 1.01c-.34.08-.64.18-.86.32-.78.46-.58.95-.25 1.3-.31.08-.45.23-.45.41-.39.25-.18.58 1.02.84.2.06.43.11.68.13h.08c.11.03.37.07.83.12l.88.09 1.43.17 2.26.19c-.68.06-1.35.11-2 .1a.154.154 0 0 0-.17-.12c-.31.02-1.06-.06-1.26-.04-.63.04-.92.25 0 .57 1.15.38 2.46.54 3.82.53 1.93 0 3.94-.35 5.62-.47l2.86-.26c.31-.05 1.06-.07 1.2-.15.27-.16.35-.39.35-.6 0-.14-.02-.41-.36-.63l-.07-.04Zm-.53-9.08h.05c.12-.02.25-.05.38-.08l.04-.04z" class="cls-1"/><path d="M14.98 64.73c-.1 0-.21-.07.15-.44.07.04.17.02.21-.05s.02-.17-.05-.21c.15-.46.26-.42.31-.35.06.09.04.23-.09-.34-.11-.48-.64-.74-1.11-1.08-3.26-2.38-8.93-4.45-11.77-5.93-.38-.2-.67-.51-.99-.53-.26-.02-.21.1-.42.18a.796.796 0 0 0-1.1.26c-.23.38-.12.87.26 1.1.03.24-.08.25.08.48.19.28.65.38 1.06.6 2.81 1.52 7.93 4.56 11.68 6.03.51.2.98.49 1.44.37.55-.15.46-.08.35-.08Z" class="cls-1"/></g></svg>