<svg xmlns="http://www.w3.org/2000/svg" width="278" height="64" fill="none"><g fill="#EBFFF5" clip-path="url(#a)"><path d="M12.403 64H0V0h11.976v4.353h12.918v11.094H11.976v37.46h.768c.341 0 .602-.6.602-1.194v-34.9h11.548v34.9C24.894 58.627 19.76 64 12.404 64M38.24 51.2V64H26.263V0h25.32v35.413c0 3.587-1.369 6.74-3.762 8.96h3.85V64H39.696V51.2zm.768-11.093c.34 0 .601-.6.601-1.194V11.007h-1.37v29.1zM66.38 51.2h-1.37V64H53.036V0h25.322v64H66.38zm-1.37-11.093h1.37v-29.1h-1.37zM79.72 64V0h12.83v64zM93.92 0h11.976v52.907h1.37V12.8h11.548V64H93.921zM132.501 64h-12.403V0h11.975v4.353h12.918v11.094h-12.918v37.46h.769c.341 0 .601-.6.601-1.194v-34.9h11.548v34.9c0 6.914-5.132 12.287-12.49 12.287M158.33 51.2V64h-11.976V0h25.322v35.413c0 3.587-1.37 6.74-3.763 8.96h3.85V64h-11.976V51.2zm.769-11.093c.341 0 .601-.6.601-1.194V11.007h-1.37v29.1zM186.472 51.2h-1.37V64h-11.976V0h25.321v64h-11.975zm-1.364-11.093h1.37v-29.1h-1.37zM199.73 12.547C199.73 5.04 204.348 0 212.475 0h12.577v38.74h-11.976V11.007h-.601c-.515 0-.769.766-.769 1.533v40.367h.602c.514 0 .768-.68.768-1.454V40.107h11.976v11.346c0 7.507-4.618 12.547-12.831 12.547H199.73zM251.228 64h-24.893V0h24.893v38.74h-11.547V11.007h-1.37v29.1h12.917V51.2h-12.917v1.367h12.917zM264.574 51.2V64h-11.976V0h25.322v35.413c0 3.587-1.37 6.74-3.763 8.96h3.85V64h-11.976V51.2zm.769-11.093c.341 0 .601-.6.601-1.194V11.007h-1.37v29.1z"/></g><defs><clipPath id="a"><path fill="#fff" d="M0 0h278v64H0z"/></clipPath></defs></svg>